<mxfile host="drawio-plugin" agent="Mozilla/5.0 (Windows NT 10.0; Win64; x64) AppleWebKit/537.36 (KHTML, like Gecko) Chrome/122.0.0.0 Safari/537.36" modified="2025-04-10T17:15:30.055Z" etag="ftawCZnVgqPg5BROit0b" version="22.1.22" type="embed">
  <diagram name="Page-1" id="crSL-Zp7MGa5OLRah7zu">
    <mxGraphModel dx="1843" dy="752" grid="1" gridSize="10" guides="1" tooltips="1" connect="1" arrows="1" fold="1" page="1" pageScale="1" pageWidth="850" pageHeight="1100" math="0" shadow="0">
      <root>
        <mxCell id="0" />
        <mxCell id="1" parent="0" />
        <mxCell id="y08ndKZFIzH9NHOpIEAc-9" style="edgeStyle=orthogonalEdgeStyle;rounded=0;orthogonalLoop=1;jettySize=auto;html=1;entryX=0.5;entryY=1;entryDx=0;entryDy=0;" parent="1" source="y08ndKZFIzH9NHOpIEAc-8" target="y08ndKZFIzH9NHOpIEAc-38" edge="1">
          <mxGeometry relative="1" as="geometry">
            <mxPoint x="245.42000000000007" y="111.40999999999997" as="targetPoint" />
            <Array as="points">
              <mxPoint x="30" y="140" />
              <mxPoint x="30" y="140" />
            </Array>
          </mxGeometry>
        </mxCell>
        <mxCell id="y08ndKZFIzH9NHOpIEAc-13" style="edgeStyle=orthogonalEdgeStyle;rounded=0;orthogonalLoop=1;jettySize=auto;html=1;entryX=0.5;entryY=1;entryDx=0;entryDy=0;endArrow=none;endFill=0;" parent="1" source="y08ndKZFIzH9NHOpIEAc-12" target="y08ndKZFIzH9NHOpIEAc-8" edge="1">
          <mxGeometry relative="1" as="geometry" />
        </mxCell>
        <mxCell id="y08ndKZFIzH9NHOpIEAc-12" value="DA" style="rounded=0;whiteSpace=wrap;html=1;" parent="1" vertex="1">
          <mxGeometry x="-17.5" y="290" width="120" height="60" as="geometry" />
        </mxCell>
        <mxCell id="y08ndKZFIzH9NHOpIEAc-15" value="Exceptions" style="swimlane;fontStyle=0;childLayout=stackLayout;horizontal=1;startSize=30;horizontalStack=0;resizeParent=1;resizeParentMax=0;resizeLast=0;collapsible=1;marginBottom=0;whiteSpace=wrap;html=1;" parent="1" vertex="1">
          <mxGeometry x="-280" y="460" width="210" height="90" as="geometry" />
        </mxCell>
        <mxCell id="y08ndKZFIzH9NHOpIEAc-16" value="&amp;nbsp;- PayloadExceeded(HeaderType)" style="text;strokeColor=none;fillColor=none;align=left;verticalAlign=middle;spacingLeft=4;spacingRight=4;overflow=hidden;points=[[0,0.5],[1,0.5]];portConstraint=eastwest;rotatable=0;whiteSpace=wrap;html=1;" parent="y08ndKZFIzH9NHOpIEAc-15" vertex="1">
          <mxGeometry y="30" width="210" height="30" as="geometry" />
        </mxCell>
        <mxCell id="y08ndKZFIzH9NHOpIEAc-17" value="&amp;nbsp;- DestinationUnreachable" style="text;strokeColor=none;fillColor=none;align=left;verticalAlign=middle;spacingLeft=4;spacingRight=4;overflow=hidden;points=[[0,0.5],[1,0.5]];portConstraint=eastwest;rotatable=0;whiteSpace=wrap;html=1;" parent="y08ndKZFIzH9NHOpIEAc-15" vertex="1">
          <mxGeometry y="60" width="210" height="30" as="geometry" />
        </mxCell>
        <mxCell id="y08ndKZFIzH9NHOpIEAc-18" value="Network" style="swimlane;fontStyle=0;childLayout=stackLayout;horizontal=1;startSize=30;horizontalStack=0;resizeParent=1;resizeParentMax=0;resizeLast=0;collapsible=1;marginBottom=0;whiteSpace=wrap;html=1;" parent="1" vertex="1">
          <mxGeometry x="-30" y="430" width="210" height="150" as="geometry" />
        </mxCell>
        <mxCell id="y08ndKZFIzH9NHOpIEAc-19" value="&amp;nbsp;- TCP" style="text;strokeColor=none;fillColor=none;align=left;verticalAlign=middle;spacingLeft=4;spacingRight=4;overflow=hidden;points=[[0,0.5],[1,0.5]];portConstraint=eastwest;rotatable=0;whiteSpace=wrap;html=1;" parent="y08ndKZFIzH9NHOpIEAc-18" vertex="1">
          <mxGeometry y="30" width="210" height="30" as="geometry" />
        </mxCell>
        <mxCell id="y08ndKZFIzH9NHOpIEAc-20" value="&amp;nbsp;- SequenceNumber" style="text;strokeColor=none;fillColor=none;align=left;verticalAlign=middle;spacingLeft=4;spacingRight=4;overflow=hidden;points=[[0,0.5],[1,0.5]];portConstraint=eastwest;rotatable=0;whiteSpace=wrap;html=1;" parent="y08ndKZFIzH9NHOpIEAc-18" vertex="1">
          <mxGeometry y="60" width="210" height="30" as="geometry" />
        </mxCell>
        <mxCell id="y08ndKZFIzH9NHOpIEAc-21" value="&amp;nbsp;- Acknowledgements" style="text;strokeColor=none;fillColor=none;align=left;verticalAlign=middle;spacingLeft=4;spacingRight=4;overflow=hidden;points=[[0,0.5],[1,0.5]];portConstraint=eastwest;rotatable=0;whiteSpace=wrap;html=1;" parent="y08ndKZFIzH9NHOpIEAc-18" vertex="1">
          <mxGeometry y="90" width="210" height="30" as="geometry" />
        </mxCell>
        <mxCell id="y08ndKZFIzH9NHOpIEAc-22" value="&amp;nbsp;- Flags" style="text;strokeColor=none;fillColor=none;align=left;verticalAlign=middle;spacingLeft=4;spacingRight=4;overflow=hidden;points=[[0,0.5],[1,0.5]];portConstraint=eastwest;rotatable=0;whiteSpace=wrap;html=1;" parent="y08ndKZFIzH9NHOpIEAc-18" vertex="1">
          <mxGeometry y="120" width="210" height="30" as="geometry" />
        </mxCell>
        <mxCell id="y08ndKZFIzH9NHOpIEAc-24" style="edgeStyle=orthogonalEdgeStyle;rounded=0;orthogonalLoop=1;jettySize=auto;html=1;entryX=1;entryY=0.5;entryDx=0;entryDy=0;endArrow=none;endFill=0;" parent="1" source="y08ndKZFIzH9NHOpIEAc-23" target="y08ndKZFIzH9NHOpIEAc-8" edge="1">
          <mxGeometry relative="1" as="geometry" />
        </mxCell>
        <mxCell id="y08ndKZFIzH9NHOpIEAc-23" value="Transport" style="rounded=0;whiteSpace=wrap;html=1;" parent="1" vertex="1">
          <mxGeometry x="160" y="190" width="120" height="60" as="geometry" />
        </mxCell>
        <mxCell id="y08ndKZFIzH9NHOpIEAc-26" style="edgeStyle=orthogonalEdgeStyle;rounded=0;orthogonalLoop=1;jettySize=auto;html=1;entryX=1;entryY=0.5;entryDx=0;entryDy=0;endArrow=none;endFill=0;" parent="1" source="y08ndKZFIzH9NHOpIEAc-25" target="y08ndKZFIzH9NHOpIEAc-23" edge="1">
          <mxGeometry relative="1" as="geometry" />
        </mxCell>
        <mxCell id="y08ndKZFIzH9NHOpIEAc-25" value="APP/TUI" style="rounded=0;whiteSpace=wrap;html=1;" parent="1" vertex="1">
          <mxGeometry x="340" y="190" width="120" height="60" as="geometry" />
        </mxCell>
        <mxCell id="y08ndKZFIzH9NHOpIEAc-27" value="PacketParser" style="rounded=0;whiteSpace=wrap;html=1;" parent="1" vertex="1">
          <mxGeometry x="425" y="290" width="120" height="60" as="geometry" />
        </mxCell>
        <mxCell id="y08ndKZFIzH9NHOpIEAc-34" style="edgeStyle=orthogonalEdgeStyle;rounded=0;orthogonalLoop=1;jettySize=auto;html=1;entryX=0;entryY=0.5;entryDx=0;entryDy=0;endArrow=none;endFill=0;exitX=0.5;exitY=0;exitDx=0;exitDy=0;" parent="1" source="y08ndKZFIzH9NHOpIEAc-33" target="y08ndKZFIzH9NHOpIEAc-27" edge="1">
          <mxGeometry relative="1" as="geometry">
            <Array as="points">
              <mxPoint x="350" y="435" />
              <mxPoint x="350" y="320" />
            </Array>
          </mxGeometry>
        </mxCell>
        <mxCell id="y08ndKZFIzH9NHOpIEAc-35" value="Processes" style="edgeLabel;html=1;align=center;verticalAlign=middle;resizable=0;points=[];" parent="y08ndKZFIzH9NHOpIEAc-34" vertex="1" connectable="0">
          <mxGeometry x="0.2521" y="-3" relative="1" as="geometry">
            <mxPoint as="offset" />
          </mxGeometry>
        </mxCell>
        <mxCell id="y08ndKZFIzH9NHOpIEAc-33" value="&lt;p style=&quot;margin:0px;margin-top:4px;text-align:center;&quot;&gt;&lt;i&gt;&amp;lt;&amp;lt;Interface&amp;gt;&amp;gt;&lt;/i&gt;&lt;br&gt;&lt;b&gt;Packet&lt;/b&gt;&lt;/p&gt;&lt;hr size=&quot;1&quot; style=&quot;border-style:solid;&quot;&gt;&lt;p style=&quot;margin:0px;margin-left:4px;&quot;&gt;+ UpperHeader&lt;/p&gt;&lt;p style=&quot;margin:0px;margin-left:4px;&quot;&gt;+ SomeRandomFields&lt;/p&gt;&lt;hr size=&quot;1&quot; style=&quot;border-style:solid;&quot;&gt;&lt;p style=&quot;margin:0px;margin-left:4px;&quot;&gt;+ getDestination(Type): Type&lt;/p&gt;" style="verticalAlign=top;align=left;overflow=fill;html=1;whiteSpace=wrap;" parent="1" vertex="1">
          <mxGeometry x="260" y="435" width="190" height="140" as="geometry" />
        </mxCell>
        <mxCell id="y08ndKZFIzH9NHOpIEAc-39" style="edgeStyle=orthogonalEdgeStyle;rounded=0;orthogonalLoop=1;jettySize=auto;html=1;entryX=0.75;entryY=0;entryDx=0;entryDy=0;exitX=0.5;exitY=1;exitDx=0;exitDy=0;endArrow=none;endFill=0;" parent="1" source="y08ndKZFIzH9NHOpIEAc-36" target="y08ndKZFIzH9NHOpIEAc-8" edge="1">
          <mxGeometry relative="1" as="geometry">
            <Array as="points">
              <mxPoint x="210" y="130" />
              <mxPoint x="210" y="160" />
              <mxPoint x="71" y="160" />
            </Array>
          </mxGeometry>
        </mxCell>
        <mxCell id="y08ndKZFIzH9NHOpIEAc-36" value="&lt;p style=&quot;margin:0px;margin-top:4px;text-align:center;text-decoration:underline;&quot;&gt;&lt;b&gt;Object: Routing Table&lt;/b&gt;&lt;/p&gt;&lt;hr size=&quot;1&quot; style=&quot;border-style:solid;&quot;&gt;&lt;p style=&quot;margin:0px;margin-left:8px;&quot;&gt;-&lt;/p&gt;&lt;p style=&quot;margin:0px;margin-left:8px;&quot;&gt;-&lt;/p&gt;&lt;p style=&quot;margin:0px;margin-left:8px;&quot;&gt;-&amp;nbsp;&lt;/p&gt;" style="verticalAlign=top;align=left;overflow=fill;html=1;whiteSpace=wrap;" parent="1" vertex="1">
          <mxGeometry x="190" y="40" width="160" height="90" as="geometry" />
        </mxCell>
        <mxCell id="y08ndKZFIzH9NHOpIEAc-38" value="&lt;p style=&quot;margin:0px;margin-top:4px;text-align:center;&quot;&gt;&lt;b&gt;Layer&lt;/b&gt;&lt;/p&gt;&lt;hr size=&quot;1&quot; style=&quot;border-style:solid;&quot;&gt;&lt;p style=&quot;margin:0px;margin-left:4px;&quot;&gt;&amp;nbsp;+ ReceiveHeader(HeaderType)&lt;/p&gt;" style="verticalAlign=top;align=left;overflow=fill;html=1;whiteSpace=wrap;" parent="1" vertex="1">
          <mxGeometry x="-60" y="10" width="180" height="90" as="geometry" />
        </mxCell>
        <mxCell id="y08ndKZFIzH9NHOpIEAc-40" style="edgeStyle=orthogonalEdgeStyle;rounded=0;orthogonalLoop=1;jettySize=auto;html=1;entryX=0;entryY=0.5;entryDx=0;entryDy=0;" parent="1" source="y08ndKZFIzH9NHOpIEAc-20" target="y08ndKZFIzH9NHOpIEAc-33" edge="1">
          <mxGeometry relative="1" as="geometry" />
        </mxCell>
        <mxCell id="y08ndKZFIzH9NHOpIEAc-47" value="" style="group" parent="1" vertex="1" connectable="0">
          <mxGeometry x="-220" y="180" width="320" height="70" as="geometry" />
        </mxCell>
        <mxCell id="y08ndKZFIzH9NHOpIEAc-8" value="Network" style="rounded=0;whiteSpace=wrap;html=1;" parent="y08ndKZFIzH9NHOpIEAc-47" vertex="1">
          <mxGeometry x="205" y="10" width="115" height="60" as="geometry" />
        </mxCell>
        <mxCell id="y08ndKZFIzH9NHOpIEAc-10" value="Link" style="rounded=0;whiteSpace=wrap;html=1;" parent="y08ndKZFIzH9NHOpIEAc-47" vertex="1">
          <mxGeometry width="120" height="60" as="geometry" />
        </mxCell>
        <mxCell id="y08ndKZFIzH9NHOpIEAc-45" value="" style="strokeWidth=1;html=1;shape=mxgraph.flowchart.annotation_2;align=left;labelPosition=right;pointerEvents=1;rotation=-90;fillColor=default;" parent="y08ndKZFIzH9NHOpIEAc-47" vertex="1">
          <mxGeometry x="147.5" y="7.5" width="30" height="85" as="geometry" />
        </mxCell>
        <mxCell id="y08ndKZFIzH9NHOpIEAc-48" style="edgeStyle=orthogonalEdgeStyle;rounded=0;orthogonalLoop=1;jettySize=auto;html=1;exitX=0;exitY=0.5;exitDx=0;exitDy=0;exitPerimeter=0;entryX=0;entryY=0.5;entryDx=0;entryDy=0;endArrow=none;endFill=0;" parent="1" source="y08ndKZFIzH9NHOpIEAc-45" target="y08ndKZFIzH9NHOpIEAc-20" edge="1">
          <mxGeometry relative="1" as="geometry">
            <Array as="points">
              <mxPoint x="-57" y="370" />
              <mxPoint x="-57" y="500" />
              <mxPoint x="-30" y="500" />
            </Array>
          </mxGeometry>
        </mxCell>
      </root>
    </mxGraphModel>
  </diagram>
</mxfile>
